<svg xmlns="http://www.w3.org/2000/svg" xmlns:xlink="http://www.w3.org/1999/xlink" width="527pt" height="1189pt" viewBox="0.00 0.00 527.00 1189.00">
<g id="graph0" class="graph" transform="scale(1 1) rotate(0) translate(4 1185.2)">
<title>TahlilSistemi_Guncel</title>
<polygon fill="white" stroke="none" points="-4,4 -4,-1185.2 523.15,-1185.2 523.15,4 -4,4"/>
<!-- Basla -->
<g id="node1" class="node">
<title>Basla</title>
<ellipse fill="none" stroke="black" cx="259.42" cy="-1163.2" rx="41.1" ry="18"/>
<text xml:space="preserve" text-anchor="middle" x="259.42" y="-1159" font-family="Arial" font-size="14.00">BAŞLA</text>
</g>
<!-- GirisDongusu -->
<g id="node3" class="node">
<title>GirisDongusu</title>
<polygon fill="none" stroke="black" points="332.97,-1108.2 185.86,-1108.2 185.86,-1072.2 332.97,-1072.2 332.97,-1108.2"/>
<text xml:space="preserve" text-anchor="middle" x="259.42" y="-1086" font-family="Arial" font-size="14.00">DÖNGÜ: Deneme &lt; 3</text>
</g>
<!-- Basla&#45;&gt;GirisDongusu -->
<g id="edge1" class="edge">
<title>Basla-&gt;GirisDongusu</title>
<path fill="none" stroke="black" d="M259.42,-1145.01C259.42,-1137.43 259.42,-1128.3 259.42,-1119.74"/>
<polygon fill="black" stroke="black" points="262.92,-1119.74 259.42,-1109.74 255.92,-1119.74 262.92,-1119.74"/>
</g>
<!-- Bitir -->
<g id="node2" class="node">
<title>Bitir</title>
<ellipse fill="none" stroke="black" cx="148.42" cy="-18" rx="41.08" ry="18"/>
<text xml:space="preserve" text-anchor="middle" x="148.42" y="-13.8" font-family="Arial" font-size="14.00">BİTİR</text>
</g>
<!-- KimlikDogrulama -->
<g id="node4" class="node">
<title>KimlikDogrulama</title>
<polygon fill="none" stroke="black" points="405.41,-1019.4 173.17,-1019.4 113.43,-983.4 345.66,-983.4 405.41,-1019.4"/>
<text xml:space="preserve" text-anchor="middle" x="259.42" y="-997.2" font-family="Arial" font-size="14.00">OKU Kimlik No, Şifre</text>
</g>
<!-- GirisDongusu&#45;&gt;KimlikDogrulama -->
<g id="edge2" class="edge">
<title>GirisDongusu-&gt;KimlikDogrulama</title>
<path fill="none" stroke="black" d="M259.42,-1072.05C259.42,-1060.36 259.42,-1044.59 259.42,-1031.02"/>
<polygon fill="black" stroke="black" points="262.92,-1031.32 259.42,-1021.32 255.92,-1031.32 262.92,-1031.32"/>
</g>
<!-- HesapBloke -->
<g id="node8" class="node">
<title>HesapBloke</title>
<polygon fill="none" stroke="black" points="170.83,-965.4 0,-965.4 0,-929.4 170.83,-929.4 170.83,-965.4"/>
<text xml:space="preserve" text-anchor="middle" x="85.42" y="-943.2" font-family="Arial" font-size="14.00">HESAP BLOKE EDİLDİ</text>
</g>
<!-- GirisDongusu&#45;&gt;HesapBloke -->
<g id="edge7" class="edge">
<title>GirisDongusu-&gt;HesapBloke</title>
<path fill="none" stroke="black" d="M185.57,-1073.41C155.55,-1063.12 123.5,-1046.39 104.42,-1019.4 95.7,-1007.07 90.98,-990.97 88.43,-977.22"/>
<polygon fill="black" stroke="black" points="91.9,-976.74 86.93,-967.39 84.98,-977.8 91.9,-976.74"/>
<text xml:space="preserve" text-anchor="middle" x="192.96" y="-1041.6" font-family="Times,serif" font-size="14.00">3 deneme sonrası</text>
</g>
<!-- GirisKontrol -->
<g id="node5" class="node">
<title>GirisKontrol</title>
<polygon fill="none" stroke="black" points="277.42,-911.4 151.73,-869.8 277.42,-828.2 403.11,-869.8 277.42,-911.4"/>
<text xml:space="preserve" text-anchor="middle" x="277.42" y="-874" font-family="Arial" font-size="14.00">Kimlik Doğrulama</text>
<text xml:space="preserve" text-anchor="middle" x="277.42" y="-857.2" font-family="Arial" font-size="14.00">Başarılı mı?</text>
</g>
<!-- KimlikDogrulama&#45;&gt;GirisKontrol -->
<g id="edge3" class="edge">
<title>KimlikDogrulama-&gt;GirisKontrol</title>
<path fill="none" stroke="black" d="M261.84,-982.92C264.04,-967.09 267.39,-942.99 270.42,-921.18"/>
<polygon fill="black" stroke="black" points="273.85,-921.92 271.76,-911.53 266.92,-920.96 273.85,-921.92"/>
</g>
<!-- GirisBasarili -->
<g id="node6" class="node">
<title>GirisBasarili</title>
<polygon fill="none" stroke="black" points="340.27,-775.4 214.57,-775.4 214.57,-739.4 340.27,-739.4 340.27,-775.4"/>
<text xml:space="preserve" text-anchor="middle" x="277.42" y="-753.2" font-family="Arial" font-size="14.00">GİRİŞ BAŞARILI</text>
</g>
<!-- GirisKontrol&#45;&gt;GirisBasarili -->
<g id="edge4" class="edge">
<title>GirisKontrol-&gt;GirisBasarili</title>
<path fill="none" stroke="black" d="M277.42,-827.69C277.42,-814.27 277.42,-799.65 277.42,-787.31"/>
<polygon fill="black" stroke="black" points="280.92,-787.38 277.42,-777.38 273.92,-787.38 280.92,-787.38"/>
<text xml:space="preserve" text-anchor="middle" x="295.3" y="-797.6" font-family="Times,serif" font-size="14.00">EVET</text>
</g>
<!-- GirisBasarisiz -->
<g id="node7" class="node">
<title>GirisBasarisiz</title>
<polygon fill="none" stroke="black" points="478.1,-775.4 368.73,-775.4 368.73,-739.4 478.1,-739.4 478.1,-775.4"/>
<text xml:space="preserve" text-anchor="middle" x="423.42" y="-753.2" font-family="Arial" font-size="14.00">HAKKI_AZALT</text>
</g>
<!-- GirisKontrol&#45;&gt;GirisBasarisiz -->
<g id="edge5" class="edge">
<title>GirisKontrol-&gt;GirisBasarisiz</title>
<path fill="none" stroke="black" d="M314.32,-839.89C332.51,-825.74 354.84,-808.54 375.09,-793.4 379.96,-789.75 385.14,-785.94 390.24,-782.22"/>
<polygon fill="black" stroke="black" points="391.96,-785.3 397.99,-776.59 387.85,-779.63 391.96,-785.3"/>
<text xml:space="preserve" text-anchor="middle" x="397.25" y="-797.6" font-family="Times,serif" font-size="14.00">HAYIR</text>
</g>
<!-- TahlilSecimDongusu -->
<g id="node9" class="node">
<title>TahlilSecimDongusu</title>
<polygon fill="none" stroke="black" points="380.72,-702.4 174.11,-702.4 174.11,-666.4 380.72,-666.4 380.72,-702.4"/>
<text xml:space="preserve" text-anchor="middle" x="277.42" y="-680.2" font-family="Arial" font-size="14.00">DÖNGÜ: İşlem Yapılıyor mu?</text>
</g>
<!-- GirisBasarili&#45;&gt;TahlilSecimDongusu -->
<g id="edge9" class="edge">
<title>GirisBasarili-&gt;TahlilSecimDongusu</title>
<path fill="none" stroke="black" d="M277.42,-739.21C277.42,-731.63 277.42,-722.5 277.42,-713.94"/>
<polygon fill="black" stroke="black" points="280.92,-713.94 277.42,-703.94 273.92,-713.94 280.92,-713.94"/>
</g>
<!-- GirisBasarisiz&#45;&gt;GirisDongusu -->
<g id="edge6" class="edge">
<title>GirisBasarisiz-&gt;GirisDongusu</title>
<path fill="none" stroke="black" d="M428.57,-775.83C440.7,-820.69 466.34,-942.03 414.42,-1019.4 398.01,-1043.85 370.85,-1059.84 343.82,-1070.25"/>
<polygon fill="black" stroke="black" points="342.73,-1066.93 334.51,-1073.6 345.1,-1073.51 342.73,-1066.93"/>
</g>
<!-- HesapBloke&#45;&gt;Bitir -->
<g id="edge8" class="edge">
<title>HesapBloke-&gt;Bitir</title>
<path fill="none" stroke="black" d="M85.42,-929.16C85.42,-902.2 85.42,-848.42 85.42,-802.8 85.42,-802.8 85.42,-802.8 85.42,-90 85.42,-69.47 100.33,-52.11 115.65,-39.7"/>
<polygon fill="black" stroke="black" points="117.5,-42.69 123.39,-33.88 113.29,-37.09 117.5,-42.69"/>
</g>
<!-- TahlilSecim -->
<g id="node10" class="node">
<title>TahlilSecim</title>
<polygon fill="none" stroke="black" points="427.3,-629.4 182.51,-629.4 119.53,-593.4 364.33,-593.4 427.3,-629.4"/>
<text xml:space="preserve" text-anchor="middle" x="273.42" y="-607.2" font-family="Arial" font-size="14.00">OKU Seçilen Tahlil ID</text>
</g>
<!-- TahlilSecimDongusu&#45;&gt;TahlilSecim -->
<g id="edge10" class="edge">
<title>TahlilSecimDongusu-&gt;TahlilSecim</title>
<path fill="none" stroke="black" d="M276.45,-666.21C276.02,-658.54 275.5,-649.29 275.01,-640.64"/>
<polygon fill="black" stroke="black" points="278.52,-640.73 274.46,-630.94 271.53,-641.12 278.52,-640.73"/>
</g>
<!-- TahlilMevcut -->
<g id="node11" class="node">
<title>TahlilMevcut</title>
<polygon fill="none" stroke="black" points="306.42,-556.4 180,-538.4 306.42,-520.4 432.83,-538.4 306.42,-556.4"/>
<text xml:space="preserve" text-anchor="middle" x="306.42" y="-534.2" font-family="Arial" font-size="14.00">Tahlil Mevcut mu?</text>
</g>
<!-- TahlilSecim&#45;&gt;TahlilMevcut -->
<g id="edge11" class="edge">
<title>TahlilSecim-&gt;TahlilMevcut</title>
<path fill="none" stroke="black" d="M281.41,-593.21C285.24,-584.95 289.93,-574.87 294.2,-565.68"/>
<polygon fill="black" stroke="black" points="297.28,-567.37 298.32,-556.83 290.93,-564.42 297.28,-567.37"/>
</g>
<!-- TahlilMevcut&#45;&gt;TahlilSecimDongusu -->
<g id="edge13" class="edge">
<title>TahlilMevcut-&gt;TahlilSecimDongusu</title>
<path fill="none" stroke="black" d="M364.73,-548.55C391.29,-555.95 420.34,-569.31 436.42,-593.4 445.3,-606.71 445.74,-616.39 436.42,-629.4 425.2,-645.05 409.2,-656.22 391.61,-664.18"/>
<polygon fill="black" stroke="black" points="390.42,-660.88 382.5,-667.93 393.08,-667.36 390.42,-660.88"/>
<text xml:space="preserve" text-anchor="middle" x="465.41" y="-607.2" font-family="Times,serif" font-size="14.00">HAYIR</text>
</g>
<!-- TahlilHazir -->
<g id="node12" class="node">
<title>TahlilHazir</title>
<polygon fill="none" stroke="black" points="306.42,-467.6 180.75,-449.6 306.42,-431.6 432.08,-449.6 306.42,-467.6"/>
<text xml:space="preserve" text-anchor="middle" x="306.42" y="-445.4" font-family="Arial" font-size="14.00">Sonuç Hazır mı?</text>
</g>
<!-- TahlilMevcut&#45;&gt;TahlilHazir -->
<g id="edge12" class="edge">
<title>TahlilMevcut-&gt;TahlilHazir</title>
<path fill="none" stroke="black" d="M306.42,-520.25C306.42,-508.56 306.42,-492.79 306.42,-479.22"/>
<polygon fill="black" stroke="black" points="309.92,-479.52 306.42,-469.52 302.92,-479.52 309.92,-479.52"/>
<text xml:space="preserve" text-anchor="middle" x="324.3" y="-489.8" font-family="Times,serif" font-size="14.00">EVET</text>
</g>
<!-- SonucGoster -->
<g id="node13" class="node">
<title>SonucGoster</title>
<polygon fill="none" stroke="black" points="435.38,-378.8 219.46,-378.8 219.46,-342.8 435.38,-342.8 435.38,-378.8"/>
<text xml:space="preserve" text-anchor="middle" x="327.42" y="-356.6" font-family="Arial" font-size="14.00">TAHLİL SONUCU GÖRÜNTÜLE</text>
</g>
<!-- TahlilHazir&#45;&gt;SonucGoster -->
<g id="edge14" class="edge">
<title>TahlilHazir-&gt;SonucGoster</title>
<path fill="none" stroke="black" d="M310.47,-431.86C313.33,-420.01 317.25,-403.82 320.6,-389.99"/>
<polygon fill="black" stroke="black" points="323.93,-391.09 322.88,-380.55 317.13,-389.45 323.93,-391.09"/>
<text xml:space="preserve" text-anchor="middle" x="336.68" y="-401" font-family="Times,serif" font-size="14.00">EVET</text>
</g>
<!-- BeklemeMesaji -->
<g id="node14" class="node">
<title>BeklemeMesaji</title>
<polygon fill="none" stroke="black" points="272.01,-324.8 102.82,-324.8 102.82,-288.8 272.01,-288.8 272.01,-324.8"/>
<text xml:space="preserve" text-anchor="middle" x="187.42" y="-302.6" font-family="Arial" font-size="14.00">YAZ 'Sonuç hazır değil.'</text>
</g>
<!-- TahlilHazir&#45;&gt;BeklemeMesaji -->
<g id="edge15" class="edge">
<title>TahlilHazir-&gt;BeklemeMesaji</title>
<path fill="none" stroke="black" d="M279.57,-435.24C258.01,-423.22 228.45,-403.65 210.42,-378.8 201.32,-366.26 195.71,-349.96 192.3,-336.13"/>
<polygon fill="black" stroke="black" points="195.8,-335.75 190.26,-326.72 188.96,-337.23 195.8,-335.75"/>
<text xml:space="preserve" text-anchor="middle" x="266.98" y="-401" font-family="Times,serif" font-size="14.00">HAYIR</text>
</g>
<!-- PdfSoru -->
<g id="node15" class="node">
<title>PdfSoru</title>
<polygon fill="none" stroke="black" points="519.15,-270.8 226.87,-270.8 151.69,-234.8 443.96,-234.8 519.15,-270.8"/>
<text xml:space="preserve" text-anchor="middle" x="335.42" y="-248.6" font-family="Arial" font-size="14.00">OKU İNDİRME KOMUTU</text>
</g>
<!-- SonucGoster&#45;&gt;PdfSoru -->
<g id="edge16" class="edge">
<title>SonucGoster-&gt;PdfSoru</title>
<path fill="none" stroke="black" d="M328.7,-342.77C329.93,-326.56 331.79,-301.86 333.24,-282.59"/>
<polygon fill="black" stroke="black" points="336.73,-282.88 333.99,-272.65 329.75,-282.36 336.73,-282.88"/>
</g>
<!-- BeklemeMesaji&#45;&gt;Bitir -->
<g id="edge20" class="edge">
<title>BeklemeMesaji-&gt;Bitir</title>
<path fill="none" stroke="black" d="M159.88,-288.4C153.48,-283.34 147.16,-277.39 142.42,-270.8 127.55,-250.15 123.42,-242.24 123.42,-216.8 123.42,-216.8 123.42,-216.8 123.42,-90 123.42,-74.89 128.52,-58.95 134.11,-46"/>
<polygon fill="black" stroke="black" points="137.12,-47.83 138.18,-37.29 130.78,-44.87 137.12,-47.83"/>
</g>
<!-- PdfKontrol -->
<g id="node16" class="node">
<title>PdfKontrol</title>
<polygon fill="none" stroke="black" points="335.42,-197.8 208.23,-179.8 335.42,-161.8 462.61,-179.8 335.42,-197.8"/>
<text xml:space="preserve" text-anchor="middle" x="335.42" y="-175.6" font-family="Arial" font-size="14.00">İndir Komutu mu?</text>
</g>
<!-- PdfSoru&#45;&gt;PdfKontrol -->
<g id="edge17" class="edge">
<title>PdfSoru-&gt;PdfKontrol</title>
<path fill="none" stroke="black" d="M335.42,-234.61C335.42,-227.03 335.42,-217.9 335.42,-209.34"/>
<polygon fill="black" stroke="black" points="338.92,-209.34 335.42,-199.34 331.92,-209.34 338.92,-209.34"/>
</g>
<!-- PdfIndir -->
<g id="node17" class="node">
<title>PdfIndir</title>
<polygon fill="none" stroke="black" points="245.31,-109 151.53,-109 151.53,-73 245.31,-73 245.31,-109"/>
<text xml:space="preserve" text-anchor="middle" x="198.42" y="-86.8" font-family="Arial" font-size="14.00">PDF İNDİR</text>
</g>
<!-- PdfKontrol&#45;&gt;PdfIndir -->
<g id="edge18" class="edge">
<title>PdfKontrol-&gt;PdfIndir</title>
<path fill="none" stroke="black" d="M313.1,-164.66C292.08,-151.34 260.21,-131.15 235.39,-115.43"/>
<polygon fill="black" stroke="black" points="237.52,-112.63 227.2,-110.24 233.78,-118.55 237.52,-112.63"/>
<text xml:space="preserve" text-anchor="middle" x="297.07" y="-131.2" font-family="Times,serif" font-size="14.00">EVET</text>
</g>
<!-- IslemTamam -->
<g id="node18" class="node">
<title>IslemTamam</title>
<polygon fill="none" stroke="black" points="419.43,-109 263.41,-109 263.41,-73 419.43,-73 419.43,-109"/>
<text xml:space="preserve" text-anchor="middle" x="341.42" y="-86.8" font-family="Arial" font-size="14.00">İŞLEM TAMAMLANDI</text>
</g>
<!-- PdfKontrol&#45;&gt;IslemTamam -->
<g id="edge19" class="edge">
<title>PdfKontrol-&gt;IslemTamam</title>
<path fill="none" stroke="black" d="M336.6,-161.65C337.41,-149.96 338.5,-134.19 339.44,-120.62"/>
<polygon fill="black" stroke="black" points="342.91,-121.14 340.11,-110.92 335.93,-120.66 342.91,-121.14"/>
<text xml:space="preserve" text-anchor="middle" x="361.12" y="-131.2" font-family="Times,serif" font-size="14.00">HAYIR</text>
</g>
<!-- PdfIndir&#45;&gt;Bitir -->
<g id="edge21" class="edge">
<title>PdfIndir-&gt;Bitir</title>
<path fill="none" stroke="black" d="M186.31,-72.81C180.39,-64.41 173.14,-54.11 166.58,-44.79"/>
<polygon fill="black" stroke="black" points="169.56,-42.94 160.94,-36.78 163.83,-46.97 169.56,-42.94"/>
</g>
<!-- IslemTamam&#45;&gt;Bitir -->
<g id="edge22" class="edge">
<title>IslemTamam-&gt;Bitir</title>
<path fill="none" stroke="black" d="M294.2,-72.63C262.3,-60.89 220.57,-45.54 189.94,-34.27"/>
<polygon fill="black" stroke="black" points="191.2,-31.01 180.61,-30.84 188.79,-37.58 191.2,-31.01"/>
</g>
</g>
</svg>