<svg xmlns="http://www.w3.org/2000/svg" xmlns:xlink="http://www.w3.org/1999/xlink" width="1112pt" height="1194pt" viewBox="0.00 0.00 1112.00 1194.00">
<g id="graph0" class="graph" transform="scale(1 1) rotate(0) translate(4 1190)">
<title>DersKayitSistemi</title>
<polygon fill="white" stroke="none" points="-4,4 -4,-1190 1107.66,-1190 1107.66,4 -4,4"/>
<!-- Basla -->
<g id="node1" class="node">
<title>Basla</title>
<ellipse fill="none" stroke="black" cx="949" cy="-1168" rx="41.1" ry="18"/>
<text xml:space="preserve" text-anchor="middle" x="949" y="-1163.8" font-family="Arial" font-size="14.00">BAŞLA</text>
</g>
<!-- GirisBilgisi -->
<g id="node3" class="node">
<title>GirisBilgisi</title>
<polygon fill="none" stroke="black" points="1103.66,-1113 857.63,-1113 794.34,-1077 1040.37,-1077 1103.66,-1113"/>
<text xml:space="preserve" text-anchor="middle" x="949" y="-1090.8" font-family="Arial" font-size="14.00">OKU Öğrenci No, Şifre</text>
</g>
<!-- Basla&#45;&gt;GirisBilgisi -->
<g id="edge1" class="edge">
<title>Basla-&gt;GirisBilgisi</title>
<path fill="none" stroke="black" d="M949,-1149.81C949,-1142.23 949,-1133.1 949,-1124.54"/>
<polygon fill="black" stroke="black" points="952.5,-1124.54 949,-1114.54 945.5,-1124.54 952.5,-1124.54"/>
</g>
<!-- Bitir -->
<g id="node2" class="node">
<title>Bitir</title>
<ellipse fill="none" stroke="black" cx="970" cy="-331.6" rx="41.08" ry="18"/>
<text xml:space="preserve" text-anchor="middle" x="970" y="-327.4" font-family="Arial" font-size="14.00">BİTİR</text>
</g>
<!-- GirisKontrol -->
<g id="node4" class="node">
<title>GirisKontrol</title>
<polygon fill="none" stroke="black" points="949,-1040 825.63,-1022 949,-1004 1072.37,-1022 949,-1040"/>
<text xml:space="preserve" text-anchor="middle" x="949" y="-1017.8" font-family="Arial" font-size="14.00">Kimlik Doğru mu?</text>
</g>
<!-- GirisBilgisi&#45;&gt;GirisKontrol -->
<g id="edge2" class="edge">
<title>GirisBilgisi-&gt;GirisKontrol</title>
<path fill="none" stroke="black" d="M949,-1076.81C949,-1069.23 949,-1060.1 949,-1051.54"/>
<polygon fill="black" stroke="black" points="952.5,-1051.54 949,-1041.54 945.5,-1051.54 952.5,-1051.54"/>
</g>
<!-- DonemKontrol -->
<g id="node5" class="node">
<title>DonemKontrol</title>
<polygon fill="none" stroke="black" points="867,-951.2 729.63,-909.6 867,-868 1004.37,-909.6 867,-951.2"/>
<text xml:space="preserve" text-anchor="middle" x="867" y="-913.8" font-family="Arial" font-size="14.00">Ders Kayıt Dönemi</text>
<text xml:space="preserve" text-anchor="middle" x="867" y="-897" font-family="Arial" font-size="14.00">Açık mı?</text>
</g>
<!-- GirisKontrol&#45;&gt;DonemKontrol -->
<g id="edge3" class="edge">
<title>GirisKontrol-&gt;DonemKontrol</title>
<path fill="none" stroke="black" d="M937.6,-1005.65C927.51,-992.07 912.3,-971.59 898.58,-953.12"/>
<polygon fill="black" stroke="black" points="901.46,-951.12 892.69,-945.18 895.84,-955.3 901.46,-951.12"/>
<text xml:space="preserve" text-anchor="middle" x="940.36" y="-973.4" font-family="Times,serif" font-size="14.00">EVET</text>
</g>
<!-- HataGiris -->
<g id="node16" class="node">
<title>HataGiris</title>
<polygon fill="none" stroke="black" points="1095.18,-850 968.82,-850 968.82,-814 1095.18,-814 1095.18,-850"/>
<text xml:space="preserve" text-anchor="middle" x="1032" y="-827.8" font-family="Arial" font-size="14.00">YAZ 'Hatalı Giriş'</text>
</g>
<!-- GirisKontrol&#45;&gt;HataGiris -->
<g id="edge4" class="edge">
<title>GirisKontrol-&gt;HataGiris</title>
<path fill="none" stroke="black" d="M967.31,-1006.43C982.13,-993.55 1002.26,-973.4 1013,-951.2 1026.77,-922.74 1030.89,-886.37 1031.96,-861.54"/>
<polygon fill="black" stroke="black" points="1035.45,-861.97 1032.22,-851.87 1028.45,-861.77 1035.45,-861.97"/>
<text xml:space="preserve" text-anchor="middle" x="1023.69" y="-973.4" font-family="Times,serif" font-size="14.00">HAYIR</text>
</g>
<!-- SecimDongusu -->
<g id="node6" class="node">
<title>SecimDongusu</title>
<polygon fill="none" stroke="black" points="354.36,-796 109.64,-796 109.64,-760 354.36,-760 354.36,-796"/>
<text xml:space="preserve" text-anchor="middle" x="232" y="-773.8" font-family="Arial" font-size="14.00">DÖNGÜ: Ders Seçimi Yapılıyor mu?</text>
</g>
<!-- DonemKontrol&#45;&gt;SecimDongusu -->
<g id="edge6" class="edge">
<title>DonemKontrol-&gt;SecimDongusu</title>
<path fill="none" stroke="black" d="M785.93,-892.05C669.09,-868.21 453.7,-824.25 328.71,-798.74"/>
<polygon fill="black" stroke="black" points="329.63,-795.35 319.13,-796.78 328.23,-802.21 329.63,-795.35"/>
<text xml:space="preserve" text-anchor="middle" x="586.42" y="-827.8" font-family="Times,serif" font-size="14.00">EVET</text>
</g>
<!-- HataDonem -->
<g id="node17" class="node">
<title>HataDonem</title>
<polygon fill="none" stroke="black" points="994.53,-742 849.47,-742 849.47,-706 994.53,-706 994.53,-742"/>
<text xml:space="preserve" text-anchor="middle" x="922" y="-719.8" font-family="Arial" font-size="14.00">YAZ 'Dönem Kapalı'</text>
</g>
<!-- DonemKontrol&#45;&gt;HataDonem -->
<g id="edge7" class="edge">
<title>DonemKontrol-&gt;HataDonem</title>
<path fill="none" stroke="black" d="M878.26,-871C888.79,-835.87 904.25,-784.24 913.7,-752.72"/>
<polygon fill="black" stroke="black" points="916.93,-754.12 916.45,-743.53 910.23,-752.11 916.93,-754.12"/>
<text xml:space="preserve" text-anchor="middle" x="916.67" y="-827.8" font-family="Times,serif" font-size="14.00">HAYIR</text>
</g>
<!-- DersKodu -->
<g id="node7" class="node">
<title>DersKodu</title>
<polygon fill="none" stroke="black" points="597.85,-664.4 329.25,-664.4 260.15,-628.4 528.75,-628.4 597.85,-664.4"/>
<text xml:space="preserve" text-anchor="middle" x="429" y="-642.2" font-family="Arial" font-size="14.00">OKU Seçilen Ders Kodu</text>
</g>
<!-- SecimDongusu&#45;&gt;DersKodu -->
<g id="edge9" class="edge">
<title>SecimDongusu-&gt;DersKodu</title>
<path fill="none" stroke="black" d="M258.57,-759.52C293.33,-736.66 354.36,-696.5 393.18,-670.97"/>
<polygon fill="black" stroke="black" points="394.84,-674.06 401.27,-665.64 391,-668.21 394.84,-674.06"/>
</g>
<!-- DanismanOnay -->
<g id="node14" class="node">
<title>DanismanOnay</title>
<polygon fill="none" stroke="black" points="836,-688 706.39,-646.4 836,-604.8 965.61,-646.4 836,-688"/>
<text xml:space="preserve" text-anchor="middle" x="836" y="-650.6" font-family="Arial" font-size="14.00">Danışman Onayı</text>
<text xml:space="preserve" text-anchor="middle" x="836" y="-633.8" font-family="Arial" font-size="14.00">Alındı mı?</text>
</g>
<!-- SecimDongusu&#45;&gt;DanismanOnay -->
<g id="edge27" class="edge">
<title>SecimDongusu-&gt;DanismanOnay</title>
<path fill="none" stroke="black" d="M354.66,-774.57C469.39,-771.05 631.83,-762.52 692,-742 729.01,-729.38 765.77,-704.98 792.89,-684.13"/>
<polygon fill="black" stroke="black" points="794.8,-687.07 800.51,-678.14 790.48,-681.56 794.8,-687.07"/>
<text xml:space="preserve" text-anchor="middle" x="792.23" y="-719.8" font-family="Times,serif" font-size="14.00">Döngü Bitti</text>
</g>
<!-- DersMevcut -->
<g id="node8" class="node">
<title>DersMevcut</title>
<polygon fill="none" stroke="black" points="429,-549.2 306.38,-531.2 429,-513.2 551.62,-531.2 429,-549.2"/>
<text xml:space="preserve" text-anchor="middle" x="429" y="-527" font-family="Arial" font-size="14.00">Ders Mevcut mu?</text>
</g>
<!-- DersKodu&#45;&gt;DersMevcut -->
<g id="edge10" class="edge">
<title>DersKodu-&gt;DersMevcut</title>
<path fill="none" stroke="black" d="M429,-628.21C429,-610.34 429,-582.07 429,-560.82"/>
<polygon fill="black" stroke="black" points="432.5,-561.07 429,-551.07 425.5,-561.07 432.5,-561.07"/>
</g>
<!-- KontenjanKontrol -->
<g id="node9" class="node">
<title>KontenjanKontrol</title>
<polygon fill="none" stroke="black" points="511,-438.4 371.64,-420.4 511,-402.4 650.36,-420.4 511,-438.4"/>
<text xml:space="preserve" text-anchor="middle" x="511" y="-416.2" font-family="Arial" font-size="14.00">Kontenjan Dolu mu?</text>
</g>
<!-- DersMevcut&#45;&gt;KontenjanKontrol -->
<g id="edge11" class="edge">
<title>DersMevcut-&gt;KontenjanKontrol</title>
<path fill="none" stroke="black" d="M440.75,-514.61C454.19,-496.78 476.38,-467.33 492.23,-446.31"/>
<polygon fill="black" stroke="black" points="494.87,-448.61 498.1,-438.52 489.28,-444.4 494.87,-448.61"/>
<text xml:space="preserve" text-anchor="middle" x="502.36" y="-470.2" font-family="Times,serif" font-size="14.00">EVET</text>
</g>
<!-- HataDersYok -->
<g id="node18" class="node">
<title>HataDersYok</title>
<polygon fill="none" stroke="black" points="353.26,-438.4 174.74,-438.4 174.74,-402.4 353.26,-402.4 353.26,-438.4"/>
<text xml:space="preserve" text-anchor="middle" x="264" y="-416.2" font-family="Arial" font-size="14.00">YAZ 'Geçersiz Ders Kodu'</text>
</g>
<!-- DersMevcut&#45;&gt;HataDersYok -->
<g id="edge12" class="edge">
<title>DersMevcut-&gt;HataDersYok</title>
<path fill="none" stroke="black" d="M407.43,-515.98C380.08,-497.94 332.54,-466.6 299.74,-444.97"/>
<polygon fill="black" stroke="black" points="302.03,-442.28 291.75,-439.7 298.17,-448.13 302.03,-442.28"/>
<text xml:space="preserve" text-anchor="middle" x="393.09" y="-470.2" font-family="Times,serif" font-size="14.00">HAYIR</text>
</g>
<!-- OnKosulKontrol -->
<g id="node10" class="node">
<title>OnKosulKontrol</title>
<polygon fill="none" stroke="black" points="307,-349.6 130.46,-331.6 307,-313.6 483.54,-331.6 307,-349.6"/>
<text xml:space="preserve" text-anchor="middle" x="307" y="-327.4" font-family="Arial" font-size="14.00">Ön Koşullar Sağlandı mı?</text>
</g>
<!-- KontenjanKontrol&#45;&gt;OnKosulKontrol -->
<g id="edge14" class="edge">
<title>KontenjanKontrol-&gt;OnKosulKontrol</title>
<path fill="none" stroke="black" d="M479.57,-406.03C445.04,-391.34 389.35,-367.64 350.6,-351.15"/>
<polygon fill="black" stroke="black" points="352.12,-348 341.55,-347.3 349.38,-354.44 352.12,-348"/>
<text xml:space="preserve" text-anchor="middle" x="449.44" y="-371.8" font-family="Times,serif" font-size="14.00">HAYIR</text>
</g>
<!-- HataKontenjan -->
<g id="node19" class="node">
<title>HataKontenjan</title>
<polygon fill="none" stroke="black" points="650.1,-349.6 501.9,-349.6 501.9,-313.6 650.1,-313.6 650.1,-349.6"/>
<text xml:space="preserve" text-anchor="middle" x="576" y="-327.4" font-family="Arial" font-size="14.00">YAZ 'Kontenjan Dolu'</text>
</g>
<!-- KontenjanKontrol&#45;&gt;HataKontenjan -->
<g id="edge15" class="edge">
<title>KontenjanKontrol-&gt;HataKontenjan</title>
<path fill="none" stroke="black" d="M522.92,-403.48C532.24,-391.03 545.4,-373.47 556.28,-358.93"/>
<polygon fill="black" stroke="black" points="558.94,-361.22 562.13,-351.12 553.34,-357.03 558.94,-361.22"/>
<text xml:space="preserve" text-anchor="middle" x="567.2" y="-371.8" font-family="Times,serif" font-size="14.00">EVET</text>
</g>
<!-- ZamanCakismasi -->
<g id="node11" class="node">
<title>ZamanCakismasi</title>
<polygon fill="none" stroke="black" points="462,-260.8 274.11,-242.8 462,-224.8 649.89,-242.8 462,-260.8"/>
<text xml:space="preserve" text-anchor="middle" x="462" y="-238.6" font-family="Arial" font-size="14.00">Zaman Çakışması Var mı?</text>
</g>
<!-- OnKosulKontrol&#45;&gt;ZamanCakismasi -->
<g id="edge17" class="edge">
<title>OnKosulKontrol-&gt;ZamanCakismasi</title>
<path fill="none" stroke="black" d="M333.29,-315.88C358.6,-301.7 397.1,-280.15 425.4,-264.3"/>
<polygon fill="black" stroke="black" points="426.98,-267.42 434,-259.48 423.56,-261.31 426.98,-267.42"/>
<text xml:space="preserve" text-anchor="middle" x="416.27" y="-283" font-family="Times,serif" font-size="14.00">EVET</text>
</g>
<!-- HataOnKosul -->
<g id="node20" class="node">
<title>HataOnKosul</title>
<polygon fill="none" stroke="black" points="256.1,-260.8 65.9,-260.8 65.9,-224.8 256.1,-224.8 256.1,-260.8"/>
<text xml:space="preserve" text-anchor="middle" x="161" y="-238.6" font-family="Arial" font-size="14.00">YAZ 'Ön Koşul Sağlanmadı'</text>
</g>
<!-- OnKosulKontrol&#45;&gt;HataOnKosul -->
<g id="edge18" class="edge">
<title>OnKosulKontrol-&gt;HataOnKosul</title>
<path fill="none" stroke="black" d="M281.9,-315.68C259.35,-302.27 225.87,-282.36 199.85,-266.9"/>
<polygon fill="black" stroke="black" points="201.97,-264.09 191.59,-261.99 198.4,-270.1 201.97,-264.09"/>
<text xml:space="preserve" text-anchor="middle" x="269.24" y="-283" font-family="Times,serif" font-size="14.00">HAYIR</text>
</g>
<!-- KrediLimitiKontrol -->
<g id="node12" class="node">
<title>KrediLimitiKontrol</title>
<polygon fill="none" stroke="black" points="462,-172 359.64,-130.4 462,-88.8 564.36,-130.4 462,-172"/>
<text xml:space="preserve" text-anchor="middle" x="462" y="-134.6" font-family="Arial" font-size="14.00">Kredi Limiti</text>
<text xml:space="preserve" text-anchor="middle" x="462" y="-117.8" font-family="Arial" font-size="14.00">Aşılıyor mu?</text>
</g>
<!-- ZamanCakismasi&#45;&gt;KrediLimitiKontrol -->
<g id="edge20" class="edge">
<title>ZamanCakismasi-&gt;KrediLimitiKontrol</title>
<path fill="none" stroke="black" d="M462,-224.55C462,-213.43 462,-198.34 462,-183.54"/>
<polygon fill="black" stroke="black" points="465.5,-183.87 462,-173.87 458.5,-183.87 465.5,-183.87"/>
<text xml:space="preserve" text-anchor="middle" x="484.17" y="-194.2" font-family="Times,serif" font-size="14.00">HAYIR</text>
</g>
<!-- HataCakis -->
<g id="node21" class="node">
<title>HataCakis</title>
<polygon fill="none" stroke="black" points="276.59,-148.4 93.41,-148.4 93.41,-112.4 276.59,-112.4 276.59,-148.4"/>
<text xml:space="preserve" text-anchor="middle" x="185" y="-126.2" font-family="Arial" font-size="14.00">YAZ 'Saat Çakışması Var'</text>
</g>
<!-- ZamanCakismasi&#45;&gt;HataCakis -->
<g id="edge21" class="edge">
<title>ZamanCakismasi-&gt;HataCakis</title>
<path fill="none" stroke="black" d="M426.64,-227.71C379.33,-208.85 294.97,-175.23 239.51,-153.12"/>
<polygon fill="black" stroke="black" points="240.81,-149.87 230.22,-149.42 238.22,-156.38 240.81,-149.87"/>
<text xml:space="preserve" text-anchor="middle" x="390.29" y="-194.2" font-family="Times,serif" font-size="14.00">EVET</text>
</g>
<!-- DersEkle -->
<g id="node13" class="node">
<title>DersEkle</title>
<polygon fill="none" stroke="black" points="671.91,-36 536.09,-36 536.09,0 671.91,0 671.91,-36"/>
<text xml:space="preserve" text-anchor="middle" x="604" y="-13.8" font-family="Arial" font-size="14.00">Ders Listesine Ekle</text>
</g>
<!-- KrediLimitiKontrol&#45;&gt;DersEkle -->
<g id="edge23" class="edge">
<title>KrediLimitiKontrol-&gt;DersEkle</title>
<path fill="none" stroke="black" d="M496.74,-102.39C519.97,-84.33 550.29,-60.75 572.77,-43.28"/>
<polygon fill="black" stroke="black" points="574.63,-46.27 580.38,-37.37 570.33,-40.74 574.63,-46.27"/>
<text xml:space="preserve" text-anchor="middle" x="580.23" y="-58.2" font-family="Times,serif" font-size="14.00">HAYIR</text>
</g>
<!-- HataKredi -->
<g id="node22" class="node">
<title>HataKredi</title>
<polygon fill="none" stroke="black" points="372.58,-36 203.42,-36 203.42,0 372.58,0 372.58,-36"/>
<text xml:space="preserve" text-anchor="middle" x="288" y="-13.8" font-family="Arial" font-size="14.00">YAZ 'Kredi Limiti Aşıldı'</text>
</g>
<!-- KrediLimitiKontrol&#45;&gt;HataKredi -->
<g id="edge24" class="edge">
<title>KrediLimitiKontrol-&gt;HataKredi</title>
<path fill="none" stroke="black" d="M422.52,-104.35C393.28,-85.8 353.71,-60.69 325.06,-42.51"/>
<polygon fill="black" stroke="black" points="327.01,-39.61 316.7,-37.21 323.26,-45.52 327.01,-39.61"/>
<text xml:space="preserve" text-anchor="middle" x="382.47" y="-58.2" font-family="Times,serif" font-size="14.00">EVET</text>
</g>
<!-- DersEkle&#45;&gt;SecimDongusu -->
<g id="edge26" class="edge">
<title>DersEkle-&gt;SecimDongusu</title>
<path fill="none" stroke="black" d="M625.01,-36.14C646.89,-56.05 678,-91.1 678,-129.4 678,-647.4 678,-647.4 678,-647.4 678,-713.07 497.46,-747.64 366.11,-764.1"/>
<polygon fill="black" stroke="black" points="365.76,-760.61 356.26,-765.31 366.61,-767.56 365.76,-760.61"/>
</g>
<!-- DersKesinlestir -->
<g id="node15" class="node">
<title>DersKesinlestir</title>
<polygon fill="none" stroke="black" points="864.35,-552 759.65,-552 759.65,-510.4 864.35,-510.4 864.35,-552"/>
<text xml:space="preserve" text-anchor="middle" x="812" y="-535.4" font-family="Arial" font-size="14.00">Ders Kaydını</text>
<text xml:space="preserve" text-anchor="middle" x="812" y="-518.6" font-family="Arial" font-size="14.00">Kesinleştir</text>
</g>
<!-- DanismanOnay&#45;&gt;DersKesinlestir -->
<g id="edge28" class="edge">
<title>DanismanOnay-&gt;DersKesinlestir</title>
<path fill="none" stroke="black" d="M827.87,-607.08C824.87,-592.89 821.49,-576.98 818.63,-563.49"/>
<polygon fill="black" stroke="black" points="822.09,-562.9 816.59,-553.85 815.24,-564.35 822.09,-562.9"/>
<text xml:space="preserve" text-anchor="middle" x="841.16" y="-574.2" font-family="Times,serif" font-size="14.00">EVET</text>
</g>
<!-- HataOnay -->
<g id="node23" class="node">
<title>HataOnay</title>
<polygon fill="none" stroke="black" points="978.99,-492.4 823.01,-492.4 823.01,-456.4 978.99,-456.4 978.99,-492.4"/>
<text xml:space="preserve" text-anchor="middle" x="901" y="-470.2" font-family="Arial" font-size="14.00">YAZ 'Onay Reddedildi'</text>
</g>
<!-- DanismanOnay&#45;&gt;HataOnay -->
<g id="edge29" class="edge">
<title>DanismanOnay-&gt;HataOnay</title>
<path fill="none" stroke="black" d="M853.01,-610.02C856.47,-602.42 859.97,-594.39 863,-586.8 874.17,-558.85 885.07,-526.17 892.31,-503.47"/>
<polygon fill="black" stroke="black" points="895.62,-504.62 895.29,-494.03 888.94,-502.51 895.62,-504.62"/>
<text xml:space="preserve" text-anchor="middle" x="890.95" y="-574.2" font-family="Times,serif" font-size="14.00">HAYIR</text>
</g>
<!-- BasariliMesaj -->
<g id="node24" class="node">
<title>BasariliMesaj</title>
<polygon fill="none" stroke="black" points="894.08,-438.4 745.92,-438.4 745.92,-402.4 894.08,-402.4 894.08,-438.4"/>
<text xml:space="preserve" text-anchor="middle" x="820" y="-416.2" font-family="Arial" font-size="14.00">YAZ 'Kayıt Başarılı'</text>
</g>
<!-- DersKesinlestir&#45;&gt;BasariliMesaj -->
<g id="edge30" class="edge">
<title>DersKesinlestir-&gt;BasariliMesaj</title>
<path fill="none" stroke="black" d="M813.49,-509.99C814.73,-493.07 816.52,-468.74 817.91,-449.85"/>
<polygon fill="black" stroke="black" points="821.38,-450.37 818.62,-440.14 814.4,-449.86 821.38,-450.37"/>
</g>
<!-- HataGiris&#45;&gt;Bitir -->
<g id="edge5" class="edge">
<title>HataGiris-&gt;Bitir</title>
<path fill="none" stroke="black" d="M1032,-813.74C1032,-792.76 1032,-756.28 1032,-725 1032,-725 1032,-725 1032,-419.4 1032,-394.17 1014.44,-371.21 998.01,-355.25"/>
<polygon fill="black" stroke="black" points="1000.47,-352.76 990.73,-348.59 995.74,-357.92 1000.47,-352.76"/>
</g>
<!-- HataDonem&#45;&gt;Bitir -->
<g id="edge8" class="edge">
<title>HataDonem-&gt;Bitir</title>
<path fill="none" stroke="black" d="M957.22,-705.62C964.04,-700.78 970.47,-694.92 975,-688 1001.86,-647.02 994,-628.4 994,-579.4 994,-579.4 994,-579.4 994,-419.4 994,-399.07 987.81,-377.01 981.72,-360.21"/>
<polygon fill="black" stroke="black" points="985,-358.99 978.14,-350.92 978.47,-361.51 985,-358.99"/>
</g>
<!-- HataDersYok&#45;&gt;SecimDongusu -->
<g id="edge13" class="edge">
<title>HataDersYok-&gt;SecimDongusu</title>
<path fill="none" stroke="black" d="M262.43,-438.8C257.29,-495.94 240.89,-678.26 234.54,-748.78"/>
<polygon fill="black" stroke="black" points="231.09,-748.07 233.68,-758.34 238.06,-748.7 231.09,-748.07"/>
</g>
<!-- HataKontenjan&#45;&gt;SecimDongusu -->
<g id="edge16" class="edge">
<title>HataKontenjan-&gt;SecimDongusu</title>
<path fill="none" stroke="black" d="M501.82,-347.95C498.84,-348.52 495.89,-349.07 493,-349.6 348.19,-376.11 298.88,-339.03 166,-402.4 155.77,-407.28 147,-408.07 147,-419.4 147,-647.4 147,-647.4 147,-647.4 147,-689.04 178.06,-727.7 202.63,-751.76"/>
<polygon fill="black" stroke="black" points="200.21,-754.29 209.89,-758.61 205.01,-749.2 200.21,-754.29"/>
</g>
<!-- HataOnKosul&#45;&gt;SecimDongusu -->
<g id="edge19" class="edge">
<title>HataOnKosul-&gt;SecimDongusu</title>
<path fill="none" stroke="black" d="M140.03,-261.11C123.07,-277.16 102,-302.72 102,-330.6 102,-647.4 102,-647.4 102,-647.4 102,-697.67 126.64,-708.36 164,-742 168.87,-746.38 174.38,-750.38 180.12,-753.97"/>
<polygon fill="black" stroke="black" points="178.18,-756.89 188.59,-758.87 181.69,-750.83 178.18,-756.89"/>
</g>
<!-- HataCakis&#45;&gt;SecimDongusu -->
<g id="edge22" class="edge">
<title>HataCakis-&gt;SecimDongusu</title>
<path fill="none" stroke="black" d="M127.75,-148.88C86.47,-165.44 38,-194.88 38,-241.8 38,-647.4 38,-647.4 38,-647.4 38,-703.77 95.33,-737.15 147.66,-755.88"/>
<polygon fill="black" stroke="black" points="146.35,-759.13 156.95,-759.05 148.62,-752.51 146.35,-759.13"/>
</g>
<!-- HataKredi&#45;&gt;SecimDongusu -->
<g id="edge25" class="edge">
<title>HataKredi-&gt;SecimDongusu</title>
<path fill="none" stroke="black" d="M203.15,-34.51C118.2,-52.53 0,-85.49 0,-129.4 0,-647.4 0,-647.4 0,-647.4 0,-697.67 20.42,-713.75 62,-742 73.21,-749.62 85.73,-755.64 98.75,-760.39"/>
<polygon fill="black" stroke="black" points="97.26,-763.58 107.85,-763.45 99.49,-756.94 97.26,-763.58"/>
</g>
<!-- HataOnay&#45;&gt;Bitir -->
<g id="edge32" class="edge">
<title>HataOnay-&gt;Bitir</title>
<path fill="none" stroke="black" d="M909.46,-456.14C921.27,-432.04 942.8,-388.1 956.75,-359.64"/>
<polygon fill="black" stroke="black" points="959.76,-361.45 961.02,-350.93 953.48,-358.36 959.76,-361.45"/>
</g>
<!-- BasariliMesaj&#45;&gt;Bitir -->
<g id="edge31" class="edge">
<title>BasariliMesaj-&gt;Bitir</title>
<path fill="none" stroke="black" d="M849.99,-402.04C874.9,-387.63 910.32,-367.14 936.22,-352.15"/>
<polygon fill="black" stroke="black" points="937.77,-355.29 944.67,-347.26 934.27,-349.23 937.77,-355.29"/>
</g>
</g>
</svg>