<svg xmlns="http://www.w3.org/2000/svg" xmlns:xlink="http://www.w3.org/1999/xlink" width="665pt" height="748pt" viewBox="0.00 0.00 665.00 748.00">
<g id="graph0" class="graph" transform="scale(1 1) rotate(0) translate(4 744.4)">
<title>AkilliEvGuvenlikSistemi</title>
<polygon fill="white" stroke="none" points="-4,4 -4,-744.4 660.94,-744.4 660.94,4 -4,4"/>
<!-- Basla -->
<g id="node1" class="node">
<title>Basla</title>
<ellipse fill="none" stroke="black" cx="436.63" cy="-722.4" rx="41.1" ry="18"/>
<text xml:space="preserve" text-anchor="middle" x="436.63" y="-718.2" font-family="Arial" font-size="14.00">BAŞLA</text>
</g>
<!-- SonsuzDongu -->
<g id="node2" class="node">
<title>SonsuzDongu</title>
<polygon fill="none" stroke="black" points="516.58,-667.4 356.67,-667.4 356.67,-631.4 516.58,-631.4 516.58,-667.4"/>
<text xml:space="preserve" text-anchor="middle" x="436.63" y="-645.2" font-family="Arial" font-size="14.00">DÖNGÜ: DOĞRU (7/24)</text>
</g>
<!-- Basla&#45;&gt;SonsuzDongu -->
<g id="edge1" class="edge">
<title>Basla-&gt;SonsuzDongu</title>
<path fill="none" stroke="black" d="M436.63,-704.21C436.63,-696.63 436.63,-687.5 436.63,-678.94"/>
<polygon fill="black" stroke="black" points="440.13,-678.94 436.63,-668.94 433.13,-678.94 440.13,-678.94"/>
</g>
<!-- SensorOku -->
<g id="node3" class="node">
<title>SensorOku</title>
<polygon fill="none" stroke="black" points="386.25,-594.4 245,-594.4 245,-558.4 386.25,-558.4 386.25,-594.4"/>
<text xml:space="preserve" text-anchor="middle" x="315.63" y="-572.2" font-family="Arial" font-size="14.00">SENSÖRLERİ OKU</text>
</g>
<!-- SonsuzDongu&#45;&gt;SensorOku -->
<g id="edge2" class="edge">
<title>SonsuzDongu-&gt;SensorOku</title>
<path fill="none" stroke="black" d="M407.03,-631.03C391.35,-621.83 371.9,-610.42 354.97,-600.48"/>
<polygon fill="black" stroke="black" points="357.04,-597.64 346.65,-595.6 353.5,-603.68 357.04,-597.64"/>
</g>
<!-- Tehdit1 -->
<g id="node4" class="node">
<title>Tehdit1</title>
<polygon fill="none" stroke="black" points="250.63,-521.4 92.31,-503.4 250.63,-485.4 408.94,-503.4 250.63,-521.4"/>
<text xml:space="preserve" text-anchor="middle" x="250.63" y="-499.2" font-family="Arial" font-size="14.00">Hareket Algılandı mı?</text>
</g>
<!-- SensorOku&#45;&gt;Tehdit1 -->
<g id="edge3" class="edge">
<title>SensorOku-&gt;Tehdit1</title>
<path fill="none" stroke="black" d="M299.89,-558.21C291.64,-549.2 281.4,-538.01 272.4,-528.18"/>
<polygon fill="black" stroke="black" points="275.24,-526.1 265.91,-521.09 270.08,-530.83 275.24,-526.1"/>
</g>
<!-- Tehdit2 -->
<g id="node5" class="node">
<title>Tehdit2</title>
<polygon fill="none" stroke="black" points="185.63,-359.6 0,-341.6 185.63,-323.6 371.25,-341.6 185.63,-359.6"/>
<text xml:space="preserve" text-anchor="middle" x="185.63" y="-337.4" font-family="Arial" font-size="14.00">Sıcaklık 50°C üstünde mi?</text>
</g>
<!-- Tehdit1&#45;&gt;Tehdit2 -->
<g id="edge5" class="edge">
<title>Tehdit1-&gt;Tehdit2</title>
<path fill="none" stroke="black" d="M227.56,-487.8C210.38,-475.46 188.26,-456.05 178.3,-432.6 169.95,-412.95 172.56,-388.74 176.83,-370.38"/>
<polygon fill="black" stroke="black" points="180.21,-371.29 179.39,-360.73 173.44,-369.5 180.21,-371.29"/>
<text xml:space="preserve" text-anchor="middle" x="200.46" y="-410.4" font-family="Times,serif" font-size="14.00">HAYIR</text>
</g>
<!-- HafifTehdit -->
<g id="node7" class="node">
<title>HafifTehdit</title>
<polygon fill="none" stroke="black" points="381.91,-432.6 231.34,-432.6 231.34,-396.6 381.91,-396.6 381.91,-432.6"/>
<text xml:space="preserve" text-anchor="middle" x="306.63" y="-410.4" font-family="Arial" font-size="14.00">BİLDİRİM GÖNDER</text>
</g>
<!-- Tehdit1&#45;&gt;HafifTehdit -->
<g id="edge4" class="edge">
<title>Tehdit1-&gt;HafifTehdit</title>
<path fill="none" stroke="black" d="M260.9,-486.48C268.85,-474.15 280.05,-456.8 289.37,-442.35"/>
<polygon fill="black" stroke="black" points="292.16,-444.48 294.64,-434.18 286.28,-440.69 292.16,-444.48"/>
<text xml:space="preserve" text-anchor="middle" x="301.53" y="-454.8" font-family="Times,serif" font-size="14.00">EVET</text>
</g>
<!-- Tehdit3 -->
<g id="node6" class="node">
<title>Tehdit3</title>
<polygon fill="none" stroke="black" points="306.63,-197.8 193.87,-179.8 306.63,-161.8 419.39,-179.8 306.63,-197.8"/>
<text xml:space="preserve" text-anchor="middle" x="306.63" y="-175.6" font-family="Arial" font-size="14.00">Kapı Açık mı?</text>
</g>
<!-- Tehdit2&#45;&gt;Tehdit3 -->
<g id="edge8" class="edge">
<title>Tehdit2-&gt;Tehdit3</title>
<path fill="none" stroke="black" d="M168.12,-324.89C146.22,-303.3 114.01,-263.83 135.3,-234.8 154.19,-209.04 185.38,-195.25 216.02,-187.97"/>
<polygon fill="black" stroke="black" points="216.73,-191.4 225.78,-185.89 215.27,-184.56 216.73,-191.4"/>
<text xml:space="preserve" text-anchor="middle" x="157.46" y="-248.6" font-family="Times,serif" font-size="14.00">HAYIR</text>
</g>
<!-- OrtaTehdit -->
<g id="node8" class="node">
<title>OrtaTehdit</title>
<polygon fill="none" stroke="black" points="408.53,-270.8 188.72,-270.8 188.72,-234.8 408.53,-234.8 408.53,-270.8"/>
<text xml:space="preserve" text-anchor="middle" x="298.63" y="-248.6" font-family="Arial" font-size="14.00">UYARI VE BİLDİRİM GÖNDER</text>
</g>
<!-- Tehdit2&#45;&gt;OrtaTehdit -->
<g id="edge7" class="edge">
<title>Tehdit2-&gt;OrtaTehdit</title>
<path fill="none" stroke="black" d="M205.83,-325.08C222.82,-312.03 247.4,-293.15 267,-278.1"/>
<polygon fill="black" stroke="black" points="268.88,-281.06 274.68,-272.19 264.62,-275.51 268.88,-281.06"/>
<text xml:space="preserve" text-anchor="middle" x="270.13" y="-293" font-family="Times,serif" font-size="14.00">EVET</text>
</g>
<!-- Tehdit3&#45;&gt;SonsuzDongu -->
<g id="edge11" class="edge">
<title>Tehdit3-&gt;SonsuzDongu</title>
<path fill="none" stroke="black" d="M362.89,-189.24C398.02,-198.07 436.63,-215.93 436.63,-251.8 436.63,-577.4 436.63,-577.4 436.63,-577.4 436.63,-591.32 436.63,-606.77 436.63,-619.7"/>
<polygon fill="black" stroke="black" points="433.13,-619.67 436.63,-629.67 440.13,-619.67 433.13,-619.67"/>
<text xml:space="preserve" text-anchor="middle" x="461.51" y="-418.8" font-family="Times,serif" font-size="14.00">HAYIR</text>
<text xml:space="preserve" text-anchor="middle" x="461.51" y="-402" font-family="Times,serif" font-size="14.00">(Sürekli)</text>
</g>
<!-- CiddiTehdit -->
<g id="node9" class="node">
<title>CiddiTehdit</title>
<polygon fill="none" stroke="black" points="475.76,-109 187.49,-109 187.49,-73 475.76,-73 475.76,-109"/>
<text xml:space="preserve" text-anchor="middle" x="331.63" y="-86.8" font-family="Arial" font-size="14.00">ALARM ÇALIŞTIR VE BİLDİRİM GÖNDER</text>
</g>
<!-- Tehdit3&#45;&gt;CiddiTehdit -->
<g id="edge10" class="edge">
<title>Tehdit3-&gt;CiddiTehdit</title>
<path fill="none" stroke="black" d="M311.45,-162.06C314.86,-150.21 319.52,-134.02 323.51,-120.19"/>
<polygon fill="black" stroke="black" points="326.83,-121.31 326.23,-110.73 320.1,-119.37 326.83,-121.31"/>
<text xml:space="preserve" text-anchor="middle" x="339.25" y="-131.2" font-family="Times,serif" font-size="14.00">EVET</text>
</g>
<!-- HafifTehdit&#45;&gt;Tehdit2 -->
<g id="edge6" class="edge">
<title>HafifTehdit-&gt;Tehdit2</title>
<path fill="none" stroke="black" d="M277.03,-396.23C259.99,-386.23 238.48,-373.61 220.6,-363.12"/>
<polygon fill="black" stroke="black" points="222.53,-360.2 212.14,-358.16 218.99,-366.24 222.53,-360.2"/>
</g>
<!-- OrtaTehdit&#45;&gt;Tehdit3 -->
<g id="edge9" class="edge">
<title>OrtaTehdit-&gt;Tehdit3</title>
<path fill="none" stroke="black" d="M300.56,-234.61C301.43,-226.94 302.47,-217.69 303.44,-209.04"/>
<polygon fill="black" stroke="black" points="306.9,-209.66 304.54,-199.33 299.94,-208.88 306.9,-209.66"/>
</g>
<!-- AlarmSifirlamaDongusu -->
<g id="node10" class="node">
<title>AlarmSifirlamaDongusu</title>
<polygon fill="none" stroke="black" points="587.18,-36 270.07,-36 270.07,0 587.18,0 587.18,-36"/>
<text xml:space="preserve" text-anchor="middle" x="428.63" y="-13.8" font-family="Arial" font-size="14.00">DÖNGÜ: Alarm Sıfırlama Komutu Gelene Kadar</text>
</g>
<!-- CiddiTehdit&#45;&gt;AlarmSifirlamaDongusu -->
<g id="edge12" class="edge">
<title>CiddiTehdit-&gt;AlarmSifirlamaDongusu</title>
<path fill="none" stroke="black" d="M355.11,-72.81C367.41,-63.81 382.66,-52.64 396.09,-42.82"/>
<polygon fill="black" stroke="black" points="397.8,-45.9 403.8,-37.17 393.67,-40.25 397.8,-45.9"/>
</g>
<!-- AlarmSifirlamaDongusu&#45;&gt;SonsuzDongu -->
<g id="edge13" class="edge">
<title>AlarmSifirlamaDongusu-&gt;SonsuzDongu</title>
<path fill="none" stroke="black" d="M472.63,-36.46C493.79,-48.02 514.63,-65.6 514.63,-90 514.63,-577.4 514.63,-577.4 514.63,-577.4 514.63,-597.49 500.31,-613.39 483.94,-625.02"/>
<polygon fill="black" stroke="black" points="482.45,-621.81 475.98,-630.21 486.27,-627.68 482.45,-621.81"/>
<text xml:space="preserve" text-anchor="middle" x="585.78" y="-337.4" font-family="Times,serif" font-size="14.00">Sıfırlama Komutu Geldi</text>
</g>
</g>
</svg>