<svg xmlns="http://www.w3.org/2000/svg" xmlns:xlink="http://www.w3.org/1999/xlink" width="672pt" height="1589pt" viewBox="0.00 0.00 672.00 1589.00">
<g id="graph0" class="graph" transform="scale(1 1) rotate(0) translate(4 1584.6)">
<title>ECommerce_Odeme_Sistemi</title>
<polygon fill="white" stroke="none" points="-4,4 -4,-1584.6 668.1,-1584.6 668.1,4 -4,4"/>
<!-- Basla -->
<g id="node1" class="node">
<title>Basla</title>
<ellipse fill="none" stroke="black" cx="323.7" cy="-1562.6" rx="41.1" ry="18"/>
<text xml:space="preserve" text-anchor="middle" x="323.7" y="-1558.4" font-family="Arial" font-size="14.00">BAŞLA</text>
</g>
<!-- OturumKontrol -->
<g id="node3" class="node">
<title>OturumKontrol</title>
<polygon fill="none" stroke="black" points="323.7,-1507.6 145.66,-1489.6 323.7,-1471.6 501.73,-1489.6 323.7,-1507.6"/>
<text xml:space="preserve" text-anchor="middle" x="323.7" y="-1485.4" font-family="Arial" font-size="14.00">Kullanıcı Giriş Yaptı mı?</text>
</g>
<!-- Basla&#45;&gt;OturumKontrol -->
<g id="edge1" class="edge">
<title>Basla-&gt;OturumKontrol</title>
<path fill="none" stroke="black" d="M323.7,-1544.41C323.7,-1536.83 323.7,-1527.7 323.7,-1519.14"/>
<polygon fill="black" stroke="black" points="327.2,-1519.14 323.7,-1509.14 320.2,-1519.14 327.2,-1519.14"/>
</g>
<!-- Bitir -->
<g id="node2" class="node">
<title>Bitir</title>
<ellipse fill="none" stroke="black" cx="360.7" cy="-18" rx="41.08" ry="18"/>
<text xml:space="preserve" text-anchor="middle" x="360.7" y="-13.8" font-family="Arial" font-size="14.00">BİTİR</text>
</g>
<!-- SepetiYukle -->
<g id="node4" class="node">
<title>SepetiYukle</title>
<polygon fill="none" stroke="black" points="325.09,-1418.8 150.31,-1418.8 150.31,-1382.8 325.09,-1382.8 325.09,-1418.8"/>
<text xml:space="preserve" text-anchor="middle" x="237.7" y="-1396.6" font-family="Arial" font-size="14.00">Sepeti Veritabanından Al</text>
</g>
<!-- OturumKontrol&#45;&gt;SepetiYukle -->
<g id="edge2" class="edge">
<title>OturumKontrol-&gt;SepetiYukle</title>
<path fill="none" stroke="black" d="M308.32,-1473.08C295.68,-1460.33 277.53,-1442 262.79,-1427.12"/>
<polygon fill="black" stroke="black" points="265.6,-1424.99 256.07,-1420.35 260.62,-1429.91 265.6,-1424.99"/>
<text xml:space="preserve" text-anchor="middle" x="306.28" y="-1441" font-family="Times,serif" font-size="14.00">EVET</text>
</g>
<!-- SepetiYukleCerez -->
<g id="node5" class="node">
<title>SepetiYukleCerez</title>
<polygon fill="none" stroke="black" points="477.84,-1418.8 343.55,-1418.8 343.55,-1382.8 477.84,-1382.8 477.84,-1418.8"/>
<text xml:space="preserve" text-anchor="middle" x="410.7" y="-1396.6" font-family="Arial" font-size="14.00">Sepeti Çerezden Al</text>
</g>
<!-- OturumKontrol&#45;&gt;SepetiYukleCerez -->
<g id="edge3" class="edge">
<title>OturumKontrol-&gt;SepetiYukleCerez</title>
<path fill="none" stroke="black" d="M339.25,-1473.08C352.03,-1460.33 370.4,-1442 385.31,-1427.12"/>
<polygon fill="black" stroke="black" points="387.51,-1429.88 392.11,-1420.34 382.56,-1424.93 387.51,-1429.88"/>
<text xml:space="preserve" text-anchor="middle" x="397.15" y="-1441" font-family="Times,serif" font-size="14.00">HAYIR</text>
</g>
<!-- AlisverisDongu -->
<g id="node6" class="node">
<title>AlisverisDongu</title>
<polygon fill="none" stroke="black" points="464.35,-1345.8 183.04,-1345.8 183.04,-1309.8 464.35,-1309.8 464.35,-1345.8"/>
<text xml:space="preserve" text-anchor="middle" x="323.7" y="-1323.6" font-family="Arial" font-size="14.00">DÖNGÜ: Kullanıcı Alışveriş Yapıyor mu?</text>
</g>
<!-- SepetiYukle&#45;&gt;AlisverisDongu -->
<g id="edge4" class="edge">
<title>SepetiYukle-&gt;AlisverisDongu</title>
<path fill="none" stroke="black" d="M258.51,-1382.61C269.21,-1373.78 282.43,-1362.87 294.16,-1353.19"/>
<polygon fill="black" stroke="black" points="296.12,-1356.1 301.6,-1347.04 291.66,-1350.71 296.12,-1356.1"/>
</g>
<!-- SepetiYukleCerez&#45;&gt;AlisverisDongu -->
<g id="edge5" class="edge">
<title>SepetiYukleCerez-&gt;AlisverisDongu</title>
<path fill="none" stroke="black" d="M389.64,-1382.61C378.82,-1373.78 365.45,-1362.87 353.58,-1353.19"/>
<polygon fill="black" stroke="black" points="356,-1350.64 346.04,-1347.03 351.57,-1356.07 356,-1350.64"/>
</g>
<!-- UrunSec -->
<g id="node7" class="node">
<title>UrunSec</title>
<polygon fill="none" stroke="black" points="456.31,-1272.8 245.35,-1272.8 191.08,-1236.8 402.04,-1236.8 456.31,-1272.8"/>
<text xml:space="preserve" text-anchor="middle" x="323.7" y="-1250.6" font-family="Arial" font-size="14.00">OKU ÜRÜN, ADET</text>
</g>
<!-- AlisverisDongu&#45;&gt;UrunSec -->
<g id="edge6" class="edge">
<title>AlisverisDongu-&gt;UrunSec</title>
<path fill="none" stroke="black" d="M323.7,-1309.61C323.7,-1302.03 323.7,-1292.9 323.7,-1284.34"/>
<polygon fill="black" stroke="black" points="327.2,-1284.34 323.7,-1274.34 320.2,-1284.34 327.2,-1284.34"/>
</g>
<!-- StokKontrol -->
<g id="node8" class="node">
<title>StokKontrol</title>
<polygon fill="none" stroke="black" points="184.7,-1199.8 73.46,-1181.8 184.7,-1163.8 295.94,-1181.8 184.7,-1199.8"/>
<text xml:space="preserve" text-anchor="middle" x="184.7" y="-1177.6" font-family="Arial" font-size="14.00">Stok Yeterli mi?</text>
</g>
<!-- UrunSec&#45;&gt;StokKontrol -->
<g id="edge7" class="edge">
<title>UrunSec-&gt;StokKontrol</title>
<path fill="none" stroke="black" d="M289.69,-1236.43C268.7,-1225.71 241.79,-1211.96 220.47,-1201.07"/>
<polygon fill="black" stroke="black" points="222.35,-1198.1 211.85,-1196.67 219.17,-1204.34 222.35,-1198.1"/>
</g>
<!-- UrunEkle -->
<g id="node9" class="node">
<title>UrunEkle</title>
<polygon fill="none" stroke="black" points="123.39,-1111 0,-1111 0,-1075 123.39,-1075 123.39,-1111"/>
<text xml:space="preserve" text-anchor="middle" x="61.7" y="-1088.8" font-family="Arial" font-size="14.00">Sepete Ürün Ekle</text>
</g>
<!-- StokKontrol&#45;&gt;UrunEkle -->
<g id="edge8" class="edge">
<title>StokKontrol-&gt;UrunEkle</title>
<path fill="none" stroke="black" d="M164.66,-1166.66C146.04,-1153.52 117.93,-1133.68 95.78,-1118.05"/>
<polygon fill="black" stroke="black" points="97.82,-1115.21 87.63,-1112.3 93.78,-1120.93 97.82,-1115.21"/>
<text xml:space="preserve" text-anchor="middle" x="152.1" y="-1133.2" font-family="Times,serif" font-size="14.00">EVET</text>
</g>
<!-- StokHata -->
<g id="node10" class="node">
<title>StokHata</title>
<polygon fill="none" stroke="black" points="417.74,-1111 198.15,-1111 141.66,-1075 361.25,-1075 417.74,-1111"/>
<text xml:space="preserve" text-anchor="middle" x="279.7" y="-1088.8" font-family="Arial" font-size="14.00">YAZ 'Yetersiz stok.'</text>
</g>
<!-- StokKontrol&#45;&gt;StokHata -->
<g id="edge9" class="edge">
<title>StokKontrol-&gt;StokHata</title>
<path fill="none" stroke="black" d="M200.81,-1166.08C214.88,-1153.22 235.59,-1134.3 252.26,-1119.07"/>
<polygon fill="black" stroke="black" points="254.41,-1121.84 259.43,-1112.51 249.69,-1116.68 254.41,-1121.84"/>
<text xml:space="preserve" text-anchor="middle" x="262.87" y="-1133.2" font-family="Times,serif" font-size="14.00">HAYIR</text>
</g>
<!-- DevamSoru -->
<g id="node11" class="node">
<title>DevamSoru</title>
<polygon fill="none" stroke="black" points="373.72,-1038 123.93,-1038 59.67,-1002 309.46,-1002 373.72,-1038"/>
<text xml:space="preserve" text-anchor="middle" x="216.7" y="-1015.8" font-family="Arial" font-size="14.00">OKU DEVAM_CEVAP</text>
</g>
<!-- UrunEkle&#45;&gt;DevamSoru -->
<g id="edge11" class="edge">
<title>UrunEkle-&gt;DevamSoru</title>
<path fill="none" stroke="black" d="M99.61,-1074.63C120.35,-1065.13 146.25,-1053.27 168.42,-1043.11"/>
<polygon fill="black" stroke="black" points="169.62,-1046.41 177.26,-1039.07 166.71,-1040.05 169.62,-1046.41"/>
</g>
<!-- StokHata&#45;&gt;UrunSec -->
<g id="edge10" class="edge">
<title>StokHata-&gt;UrunSec</title>
<path fill="none" stroke="black" d="M286.63,-1111.28C292.06,-1125.28 299.54,-1145.59 304.7,-1163.8 310.45,-1184.12 315.33,-1207.47 318.7,-1225.29"/>
<polygon fill="black" stroke="black" points="315.22,-1225.69 320.47,-1234.89 322.1,-1224.42 315.22,-1225.69"/>
</g>
<!-- DevamKontrol -->
<g id="node12" class="node">
<title>DevamKontrol</title>
<polygon fill="none" stroke="black" points="360.7,-965 172.52,-947 360.7,-929 548.88,-947 360.7,-965"/>
<text xml:space="preserve" text-anchor="middle" x="360.7" y="-942.8" font-family="Arial" font-size="14.00">DEVAM_CEVAP = 'HAYIR'?</text>
</g>
<!-- DevamSoru&#45;&gt;DevamKontrol -->
<g id="edge12" class="edge">
<title>DevamSoru-&gt;DevamKontrol</title>
<path fill="none" stroke="black" d="M251.92,-1001.63C272.82,-991.33 299.36,-978.24 320.99,-967.58"/>
<polygon fill="black" stroke="black" points="322.39,-970.79 329.82,-963.23 319.3,-964.51 322.39,-970.79"/>
</g>
<!-- DevamKontrol&#45;&gt;UrunSec -->
<g id="edge13" class="edge">
<title>DevamKontrol-&gt;UrunSec</title>
<path fill="none" stroke="black" d="M401.76,-961.48C426.67,-972.53 453.7,-990.97 453.7,-1019 453.7,-1182.8 453.7,-1182.8 453.7,-1182.8 453.7,-1206.77 436.46,-1222.7 414.54,-1233.27"/>
<polygon fill="black" stroke="black" points="413.35,-1229.96 405.57,-1237.15 416.13,-1236.39 413.35,-1229.96"/>
<text xml:space="preserve" text-anchor="middle" x="475.86" y="-1088.8" font-family="Times,serif" font-size="14.00">HAYIR</text>
</g>
<!-- OdemeAsamasi -->
<g id="node13" class="node">
<title>OdemeAsamasi</title>
<polygon fill="none" stroke="black" points="448.83,-876.2 272.56,-876.2 272.56,-840.2 448.83,-840.2 448.83,-876.2"/>
<text xml:space="preserve" text-anchor="middle" x="360.7" y="-854" font-family="Arial" font-size="14.00">BAŞLA ÖDEME AŞAMASI</text>
</g>
<!-- DevamKontrol&#45;&gt;OdemeAsamasi -->
<g id="edge14" class="edge">
<title>DevamKontrol-&gt;OdemeAsamasi</title>
<path fill="none" stroke="black" d="M360.7,-928.85C360.7,-917.16 360.7,-901.39 360.7,-887.82"/>
<polygon fill="black" stroke="black" points="364.2,-888.12 360.7,-878.12 357.2,-888.12 364.2,-888.12"/>
<text xml:space="preserve" text-anchor="middle" x="378.58" y="-898.4" font-family="Times,serif" font-size="14.00">EVET</text>
</g>
<!-- IndirimSoru -->
<g id="node14" class="node">
<title>IndirimSoru</title>
<polygon fill="none" stroke="black" points="526.35,-803.2 262.83,-803.2 195.04,-767.2 458.56,-767.2 526.35,-803.2"/>
<text xml:space="preserve" text-anchor="middle" x="360.7" y="-781" font-family="Arial" font-size="14.00">OKU İNDİRİM_KODU</text>
</g>
<!-- OdemeAsamasi&#45;&gt;IndirimSoru -->
<g id="edge15" class="edge">
<title>OdemeAsamasi-&gt;IndirimSoru</title>
<path fill="none" stroke="black" d="M360.7,-840.01C360.7,-832.43 360.7,-823.3 360.7,-814.74"/>
<polygon fill="black" stroke="black" points="364.2,-814.74 360.7,-804.74 357.2,-814.74 364.2,-814.74"/>
</g>
<!-- IndirimKontrol -->
<g id="node15" class="node">
<title>IndirimKontrol</title>
<polygon fill="none" stroke="black" points="360.7,-730.2 247.18,-712.2 360.7,-694.2 474.22,-712.2 360.7,-730.2"/>
<text xml:space="preserve" text-anchor="middle" x="360.7" y="-708" font-family="Arial" font-size="14.00">Kod Geçerli mi?</text>
</g>
<!-- IndirimSoru&#45;&gt;IndirimKontrol -->
<g id="edge16" class="edge">
<title>IndirimSoru-&gt;IndirimKontrol</title>
<path fill="none" stroke="black" d="M360.7,-767.01C360.7,-759.43 360.7,-750.3 360.7,-741.74"/>
<polygon fill="black" stroke="black" points="364.2,-741.74 360.7,-731.74 357.2,-741.74 364.2,-741.74"/>
</g>
<!-- IndirimUygula -->
<g id="node16" class="node">
<title>IndirimUygula</title>
<polygon fill="none" stroke="black" points="370.93,-641.4 258.46,-641.4 258.46,-605.4 370.93,-605.4 370.93,-641.4"/>
<text xml:space="preserve" text-anchor="middle" x="314.7" y="-619.2" font-family="Arial" font-size="14.00">İndirimi Uygula</text>
</g>
<!-- IndirimKontrol&#45;&gt;IndirimUygula -->
<g id="edge17" class="edge">
<title>IndirimKontrol-&gt;IndirimUygula</title>
<path fill="none" stroke="black" d="M352.26,-695.28C345.79,-683.07 336.71,-665.93 329.09,-651.57"/>
<polygon fill="black" stroke="black" points="332.35,-650.24 324.58,-643.05 326.17,-653.52 332.35,-650.24"/>
<text xml:space="preserve" text-anchor="middle" x="359.7" y="-663.6" font-family="Times,serif" font-size="14.00">EVET</text>
</g>
<!-- AdresGir -->
<g id="node18" class="node">
<title>AdresGir</title>
<polygon fill="none" stroke="black" points="527.16,-568.4 262.36,-568.4 194.24,-532.4 459.04,-532.4 527.16,-568.4"/>
<text xml:space="preserve" text-anchor="middle" x="360.7" y="-546.2" font-family="Arial" font-size="14.00">OKU KARGO_ADRESİ</text>
</g>
<!-- IndirimKontrol&#45;&gt;AdresGir -->
<g id="edge18" class="edge">
<title>IndirimKontrol-&gt;AdresGir</title>
<path fill="none" stroke="black" d="M372.48,-695.66C376.19,-689.86 379.8,-683.03 381.7,-676.2 390.75,-643.52 381.25,-604.87 372.28,-579.34"/>
<polygon fill="black" stroke="black" points="375.57,-578.16 368.79,-570.02 369.02,-580.61 375.57,-578.16"/>
<text xml:space="preserve" text-anchor="middle" x="407.37" y="-619.2" font-family="Times,serif" font-size="14.00">HAYIR</text>
</g>
<!-- IndirimUygula&#45;&gt;AdresGir -->
<g id="edge19" class="edge">
<title>IndirimUygula-&gt;AdresGir</title>
<path fill="none" stroke="black" d="M325.83,-605.21C331.14,-597.02 337.62,-587.02 343.54,-577.88"/>
<polygon fill="black" stroke="black" points="346.34,-579.99 348.84,-569.7 340.47,-576.19 346.34,-579.99"/>
</g>
<!-- IndirimHata -->
<g id="node17" class="node">
<title>IndirimHata</title>
<polygon fill="none" stroke="black" points="664.1,-1580.6 440.75,-1580.6 383.29,-1544.6 606.64,-1544.6 664.1,-1580.6"/>
<text xml:space="preserve" text-anchor="middle" x="523.7" y="-1558.4" font-family="Arial" font-size="14.00">YAZ 'Geçersiz kod.'</text>
</g>
<!-- KargoHesapla -->
<g id="node19" class="node">
<title>KargoHesapla</title>
<polygon fill="none" stroke="black" points="434.06,-495.4 287.33,-495.4 287.33,-459.4 434.06,-459.4 434.06,-495.4"/>
<text xml:space="preserve" text-anchor="middle" x="360.7" y="-473.2" font-family="Arial" font-size="14.00">Kargo Ücreti Hesapla</text>
</g>
<!-- AdresGir&#45;&gt;KargoHesapla -->
<g id="edge20" class="edge">
<title>AdresGir-&gt;KargoHesapla</title>
<path fill="none" stroke="black" d="M360.7,-532.21C360.7,-524.63 360.7,-515.5 360.7,-506.94"/>
<polygon fill="black" stroke="black" points="364.2,-506.94 360.7,-496.94 357.2,-506.94 364.2,-506.94"/>
</g>
<!-- OdemeYontemiSec -->
<g id="node20" class="node">
<title>OdemeYontemiSec</title>
<polygon fill="none" stroke="black" points="533.43,-422.4 258.65,-422.4 187.96,-386.4 462.75,-386.4 533.43,-422.4"/>
<text xml:space="preserve" text-anchor="middle" x="360.7" y="-400.2" font-family="Arial" font-size="14.00">OKU ÖDEME_YÖNTEMİ</text>
</g>
<!-- KargoHesapla&#45;&gt;OdemeYontemiSec -->
<g id="edge21" class="edge">
<title>KargoHesapla-&gt;OdemeYontemiSec</title>
<path fill="none" stroke="black" d="M360.7,-459.21C360.7,-451.63 360.7,-442.5 360.7,-433.94"/>
<polygon fill="black" stroke="black" points="364.2,-433.94 360.7,-423.94 357.2,-433.94 364.2,-433.94"/>
</g>
<!-- OdemeBilgisiGir -->
<g id="node21" class="node">
<title>OdemeBilgisiGir</title>
<polygon fill="none" stroke="black" points="543.68,-349.4 252.59,-349.4 177.71,-313.4 468.8,-313.4 543.68,-349.4"/>
<text xml:space="preserve" text-anchor="middle" x="360.7" y="-327.2" font-family="Arial" font-size="14.00">OKU ÖDEME BİLGİLERİ</text>
</g>
<!-- OdemeYontemiSec&#45;&gt;OdemeBilgisiGir -->
<g id="edge22" class="edge">
<title>OdemeYontemiSec-&gt;OdemeBilgisiGir</title>
<path fill="none" stroke="black" d="M360.7,-386.21C360.7,-378.63 360.7,-369.5 360.7,-360.94"/>
<polygon fill="black" stroke="black" points="364.2,-360.94 360.7,-350.94 357.2,-360.94 364.2,-360.94"/>
</g>
<!-- OdemeIslemi -->
<g id="node22" class="node">
<title>OdemeIslemi</title>
<polygon fill="none" stroke="black" points="360.7,-276.4 214.54,-258.4 360.7,-240.4 506.85,-258.4 360.7,-276.4"/>
<text xml:space="preserve" text-anchor="middle" x="360.7" y="-254.2" font-family="Arial" font-size="14.00">Ödeme Başarılı mı?</text>
</g>
<!-- OdemeBilgisiGir&#45;&gt;OdemeIslemi -->
<g id="edge23" class="edge">
<title>OdemeBilgisiGir-&gt;OdemeIslemi</title>
<path fill="none" stroke="black" d="M360.7,-313.21C360.7,-305.63 360.7,-296.5 360.7,-287.94"/>
<polygon fill="black" stroke="black" points="364.2,-287.94 360.7,-277.94 357.2,-287.94 364.2,-287.94"/>
</g>
<!-- SiparisKaydet -->
<g id="node23" class="node">
<title>SiparisKaydet</title>
<polygon fill="none" stroke="black" points="298.94,-187.6 172.45,-187.6 172.45,-146 298.94,-146 298.94,-187.6"/>
<text xml:space="preserve" text-anchor="middle" x="235.7" y="-171" font-family="Arial" font-size="14.00">Siparişi Kaydet</text>
<text xml:space="preserve" text-anchor="middle" x="235.7" y="-154.2" font-family="Arial" font-size="14.00">Stokları Güncelle</text>
</g>
<!-- OdemeIslemi&#45;&gt;SiparisKaydet -->
<g id="edge24" class="edge">
<title>OdemeIslemi-&gt;SiparisKaydet</title>
<path fill="none" stroke="black" d="M340.06,-242.6C321.85,-229.56 294.88,-210.23 272.92,-194.48"/>
<polygon fill="black" stroke="black" points="275.25,-191.85 265.09,-188.87 271.17,-197.54 275.25,-191.85"/>
<text xml:space="preserve" text-anchor="middle" x="327.28" y="-209.8" font-family="Times,serif" font-size="14.00">EVET</text>
</g>
<!-- OdemeHata -->
<g id="node24" class="node">
<title>OdemeHata</title>
<polygon fill="none" stroke="black" points="658.01,-184.8 387.08,-184.8 317.38,-148.8 588.31,-148.8 658.01,-184.8"/>
<text xml:space="preserve" text-anchor="middle" x="487.7" y="-162.6" font-family="Arial" font-size="14.00">YAZ 'Ödeme başarısız.'</text>
</g>
<!-- OdemeIslemi&#45;&gt;OdemeHata -->
<g id="edge25" class="edge">
<title>OdemeIslemi-&gt;OdemeHata</title>
<path fill="none" stroke="black" d="M381.67,-242.6C401.27,-228.77 430.88,-207.88 453.83,-191.69"/>
<polygon fill="black" stroke="black" points="455.82,-194.57 461.98,-185.94 451.79,-188.85 455.82,-194.57"/>
<text xml:space="preserve" text-anchor="middle" x="453.97" y="-209.8" font-family="Times,serif" font-size="14.00">HAYIR</text>
</g>
<!-- OdemeBitir -->
<g id="node25" class="node">
<title>OdemeBitir</title>
<polygon fill="none" stroke="black" points="448.82,-109 272.57,-109 272.57,-73 448.82,-73 448.82,-109"/>
<text xml:space="preserve" text-anchor="middle" x="360.7" y="-86.8" font-family="Arial" font-size="14.00">BİTİR ÖDEME AŞAMASI</text>
</g>
<!-- SiparisKaydet&#45;&gt;OdemeBitir -->
<g id="edge26" class="edge">
<title>SiparisKaydet-&gt;OdemeBitir</title>
<path fill="none" stroke="black" d="M269.85,-145.63C285.78,-136.23 304.81,-124.99 321.34,-115.24"/>
<polygon fill="black" stroke="black" points="323.12,-118.25 329.95,-110.15 319.56,-112.22 323.12,-118.25"/>
</g>
<!-- OdemeHata&#45;&gt;OdemeBitir -->
<g id="edge27" class="edge">
<title>OdemeHata-&gt;OdemeBitir</title>
<path fill="none" stroke="black" d="M457.6,-148.31C440.52,-138.38 418.93,-125.84 400.46,-115.11"/>
<polygon fill="black" stroke="black" points="402.29,-112.12 391.89,-110.12 398.77,-118.18 402.29,-112.12"/>
</g>
<!-- OdemeBitir&#45;&gt;Bitir -->
<g id="edge28" class="edge">
<title>OdemeBitir-&gt;Bitir</title>
<path fill="none" stroke="black" d="M360.7,-72.81C360.7,-65.23 360.7,-56.1 360.7,-47.54"/>
<polygon fill="black" stroke="black" points="364.2,-47.54 360.7,-37.54 357.2,-47.54 364.2,-47.54"/>
</g>
</g>
</svg>